# xmcd
#
# Track frame offsets: 
#        150
#        12680
#        24830
#        39135
#        52122
#        64327
#        75282
#        88102
#        100557
#        111210
#        123342
#        135057
#        149022
#        168952
#        182607
#        209375
#        221392
#        251490
#
# Disc length: 3615 seconds
#
# Revision: 7
# Processed by: cddbd v1.5.2PL0 Copyright (c) Steve Scherf et al.
# Submitted via: ExactAudioCopyFreeDBPlugin 1.0
#
DISCID=ea0e1d12
DTITLE=Various Artist - Willie Dixon:  The Chess Box [box set]
DYEAR=1989
DGENRE=Blues
TTITLE0=Howlin' Wolf - Spoonful
TTITLE1=Otis Rush - You Know My Love
TTITLE2=Bo Diddley - You Can't Judge a Book by Its Cover
TTITLE3=Howlin' Wolf - I Ain't Superstitious
TTITLE4=Muddy Waters - You Need Love
TTITLE5=Howlin' Wolf - Little Red Rooster
TTITLE6=Howlin' Wolf - Back Door Man
TTITLE7=Little Walter - Dead Presidents
TTITLE8=Howlin' Wolf - Hidden Charms
TTITLE9=Muddy Waters - You Shook Me
TTITLE10=Sonny Boy Williamson - Bring it on Home
TTITLE11=Howlin' Wolf - Three Hundred Pounds of Joy
TTITLE12=Willie Dixon - Weak Brain, Narrow Mind
TTITLE13=Koko Taylor - Wang Dang Doodle
TTITLE14=Muddy Waters - The Same Thing (live)
TTITLE15=Howlin' Wolf - Built for Comfort
TTITLE16=Little Milton - I Can't Quit You Baby
TTITLE17=Koko Taylor - Insane Asylum
EXTD=
EXTT0=
EXTT1=
EXTT2=
EXTT3=
EXTT4=
EXTT5=
EXTT6=
EXTT7=
EXTT8=
EXTT9=
EXTT10=
EXTT11=
EXTT12=
EXTT13=
EXTT14=
EXTT15=
EXTT16=
EXTT17=
PLAYORDER=
